<?xml version="1.0" encoding="iso-8859-1"?>
<!-- Generator: Adobe Illustrator 19.0.0, SVG Export Plug-In . SVG Version: 6.00 Build 0)  -->
<svg xmlns="http://www.w3.org/2000/svg" xmlns:xlink="http://www.w3.org/1999/xlink" version="1.1" id="Layer_1" x="0px" y="0px" viewBox="0 0 512 512" style="enable-background:new 0 0 512 512;" xml:space="preserve" width="512px" height="512px">
<g>
	<g>
		<path d="M406.299,139.792c-0.812-22.533-7-44.974-17.897-64.898C365.664,33.318,325.77,6.392,278.947,1.02    C273.046,0.343,267.024,0,261.051,0c-85.713,0-155.445,69.732-155.445,155.445v252.858c0,57.18,46.518,103.697,103.697,103.697    c27.793,0,50.64-12.117,67.907-36.011c14.503-20.071,23.409-45.685,30.872-70.376c13.905-46.003,32.532-92.952,55.365-139.549    l28.012-57.163C402.17,187.044,407.162,163.792,406.299,139.792z M373.143,199.924l-28.012,57.164    c-23.317,47.582-42.351,95.568-56.574,142.623c-17.148,56.731-36.388,91.892-79.254,91.892c-45.931,0-83.299-37.368-83.299-83.299    V155.445c0-74.465,60.581-135.047,135.047-135.047c5.201,0,10.44,0.299,15.573,0.886c40.148,4.606,74.367,27.713,93.883,63.396    C390.32,120.906,391.28,162.912,373.143,199.924z" fill="#FFFFFF"/>
	</g>
</g>
<g>
	<g>
		<path d="M286.491,283.014c-5.362-1.738-11.111,1.199-12.847,6.558c-1.043,3.219-2.065,6.48-3.035,9.69    c-1.629,5.392,1.422,11.085,6.814,12.713c0.983,0.298,1.977,0.44,2.954,0.44c4.379,0,8.427-2.844,9.76-7.253    c0.93-3.081,1.91-6.211,2.912-9.302C294.785,290.502,291.848,284.751,286.491,283.014z" fill="#FFFFFF"/>
	</g>
</g>
<g>
	<g>
		<path d="M337.161,106.933c-14.069-25.723-38.758-42.385-67.736-45.709c-3.639-0.417-7.351-0.629-11.03-0.629    c-52.849,0-95.845,42.997-95.845,95.845c0,5.632,4.566,10.199,10.199,10.199c5.633,0,10.199-4.567,10.199-10.199    c0-41.602,33.845-75.447,75.447-75.447c2.907,0,5.836,0.167,8.706,0.496c22.305,2.559,41.318,15.401,52.164,35.232    c11.021,20.153,11.557,43.517,1.468,64.105l-16.517,33.707c-7.148,14.586-13.668,29.338-19.381,43.85    c-2.063,5.242,0.514,11.164,5.755,13.226c1.227,0.482,2.491,0.712,3.733,0.712c4.068,0,7.914-2.452,9.492-6.466    c5.512-14.005,11.81-28.253,18.717-42.347l16.518-33.707C351.902,163.574,351.196,132.595,337.161,106.933z" fill="#FFFFFF"/>
	</g>
</g>
<g>
	<g>
		<path d="M224.316,365.761c-23.73,0-43.037-19.305-43.037-43.037c0-5.632-4.566-10.199-10.199-10.199    c-5.633,0-10.199,4.567-10.199,10.199c0,34.978,28.457,63.435,63.435,63.435c5.633,0,10.199-4.567,10.199-10.199    C234.515,370.328,229.949,365.761,224.316,365.761z" fill="#FFFFFF"/>
	</g>
</g>
<g>
	<g>
		<path d="M171.081,239.609c-5.633,0-10.199,4.567-10.199,10.199s4.566,10.199,10.199,10.199c23.73,0,43.037,19.305,43.037,43.036    c0,5.632,4.566,10.199,10.199,10.199c5.633,0,10.199-4.567,10.199-10.199C234.515,268.065,206.059,239.609,171.081,239.609z" fill="#FFFFFF"/>
	</g>
</g>
<g>
</g>
<g>
</g>
<g>
</g>
<g>
</g>
<g>
</g>
<g>
</g>
<g>
</g>
<g>
</g>
<g>
</g>
<g>
</g>
<g>
</g>
<g>
</g>
<g>
</g>
<g>
</g>
<g>
</g>
</svg>
