<?xml version="1.0" encoding="iso-8859-1"?>
<!-- Generator: Adobe Illustrator 19.0.0, SVG Export Plug-In . SVG Version: 6.00 Build 0)  -->
<svg xmlns="http://www.w3.org/2000/svg" xmlns:xlink="http://www.w3.org/1999/xlink" version="1.1" id="Layer_1" x="0px" y="0px" viewBox="0 0 496 496" style="enable-background:new 0 0 496 496;" xml:space="preserve" width="512px" height="512px">
<g>
	<g>
		<g>
			<path d="M248,224c-26.472,0-48,21.528-48,48s21.528,48,48,48s48-21.528,48-48S274.472,224,248,224z M248,304     c-17.648,0-32-14.352-32-32s14.352-32,32-32s32,14.352,32,32S265.648,304,248,304z" fill="#D80027"/>
			<path d="M496,208V0H272v128h-85.728c3.64-10.24,5.728-20.992,5.728-32c0-52.936-43.064-96-96-96C43.064,0,0,43.064,0,96     c0,32.032,15.824,60.368,40,77.816V400H0v40c0,13.232,10.768,24,24,24h200v8c0,13.232,10.768,24,24,24s24-10.768,24-24v-8h200     c13.232,0,24-10.768,24-24v-40h-40V208H496z M288,16h192v48H288V16z M179.008,144H272v16h-88.216l-5.384-14.816     C178.632,144.8,178.784,144.384,179.008,144z M16,96c0-44.112,35.888-80,80-80s80,35.888,80,80     c0,15.616-4.544,30.784-13.144,43.856l-2.2,3.352l9.968,27.416L152,163.856V144c0-21.584-12.296-40.32-30.232-49.664     C130.4,86.992,136,76.192,136,64c0-22.056-17.944-40-40-40c-22.056,0-40,17.944-40,40c0,12.192,5.6,22.992,14.232,30.336     C52.296,103.68,40,122.416,40,144v9.032C25.208,138.504,16,118.32,16,96z M96,104c22.056,0,40,17.944,40,40v21.016     C123.816,172.096,110.136,176,96,176c-14.576,0-28.216-3.984-40-10.824V144C56,121.944,73.944,104,96,104z M72,64     c0-13.232,10.768-24,24-24s24,10.768,24,24s-10.768,24-24,24S72,77.232,72,64z M224,448H24c-4.416,0-8-3.584-8-8v-24h184v16h16     v-16h8V448z M224,400H56V183.16c5.112,2.352,10.456,4.248,16,5.68V384h152V400z M224,368H88V191.592     c2.648,0.224,5.296,0.408,8,0.408c17.384,0,34.304-4.688,49.184-13.6l52.184,18.976L189.6,176H272v19.688     c-7.584-2.384-15.64-3.688-24-3.688c-44.112,0-80,35.888-80,80c0,35.752,23.584,66.088,56,76.312V368z M256,472     c0,4.416-3.584,8-8,8s-8-3.584-8-8V351.592c2.632,0.264,5.296,0.408,8,0.408s5.368-0.144,8-0.408V472z M248,336     c-35.288,0-64-28.712-64-64c0-35.288,28.712-64,64-64c35.288,0,64,28.712,64,64C312,307.288,283.288,336,248,336z M408,368H272     v-19.688c32.416-10.224,56-40.56,56-76.312c0-26.184-12.704-49.4-32.208-64H408V368z M424,384V208h16v192H272v-16H424z M480,416     v24c0,4.416-3.584,8-8,8H272v-32h8v16h16v-16H480z M288,192V80h192v112H288z" fill="#D80027"/>
			<rect x="304" y="32" width="16" height="16" fill="#D80027"/>
			<rect x="336" y="32" width="16" height="16" fill="#D80027"/>
			<rect x="304" y="96" width="160" height="16" fill="#D80027"/>
			<rect x="304" y="128" width="160" height="16" fill="#D80027"/>
			<rect x="448" y="160" width="16" height="16" fill="#D80027"/>
			<rect x="304" y="160" width="128" height="16" fill="#D80027"/>
		</g>
	</g>
</g>
<g>
</g>
<g>
</g>
<g>
</g>
<g>
</g>
<g>
</g>
<g>
</g>
<g>
</g>
<g>
</g>
<g>
</g>
<g>
</g>
<g>
</g>
<g>
</g>
<g>
</g>
<g>
</g>
<g>
</g>
</svg>
